<?xml version="1.0" standalone="no"?>
<!DOCTYPE svg PUBLIC "-//W3C//DTD SVG 20010904//EN"
 "http://www.w3.org/TR/2001/REC-SVG-20010904/DTD/svg10.dtd">
<svg version="1.0" xmlns="http://www.w3.org/2000/svg"
 width="5000.000000pt" height="2580.000000pt" viewBox="0 0 5000.000000 2580.000000"
 preserveAspectRatio="xMidYMid meet">

<g transform="translate(0.000000,2580.000000) scale(0.100000,-0.100000)"
fill="#000000" stroke="none">
<path d="M1460 25790 c-374 -29 -723 -189 -989 -452 -242 -240 -386 -519 -449
-868 -16 -89 -17 -465 -17 -5940 0 -4672 3 -5879 13 -6015 77 -1022 315 -1888
757 -2760 342 -674 774 -1271 1309 -1809 1151 -1155 2659 -1883 4263 -2056
507 -54 1017 -56 1528 -5 2624 264 4915 2002 5889 4468 455 1152 599 2381 420
3592 -276 1866 -1285 3556 -2799 4688 -1001 749 -2153 1215 -3380 1366 -326
41 -432 46 -880 46 -460 0 -587 -8 -939 -56 -1005 -137 -1988 -500 -2869
-1060 -59 -38 -110 -69 -112 -69 -3 0 -5 1199 -5 2664 0 1787 -3 2698 -10
2767 -47 462 -260 865 -605 1149 -311 255 -718 382 -1125 350z m5850 -8800
c1160 -56 2219 -606 2953 -1532 452 -569 727 -1228 829 -1982 29 -212 32 -694
5 -906 -51 -402 -127 -710 -258 -1045 -505 -1290 -1646 -2231 -2999 -2474
-262 -47 -361 -55 -700 -55 -339 -1 -448 8 -715 55 -1219 219 -2286 1023
-2849 2147 -253 506 -405 1083 -423 1612 -5 150 -3 173 17 250 19 70 24 124
30 310 6 178 13 253 34 362 111 584 337 1120 669 1592 598 848 1527 1438 2538
1610 242 41 295 47 659 64 14 1 108 -3 210 -8z"/>
<path d="M17190 25790 c-367 -29 -700 -176 -959 -425 -230 -222 -367 -462
-447 -786 l-29 -114 -3 -8575 c-2 -8557 -2 -8575 18 -8694 55 -327 200 -607
435 -841 221 -222 473 -358 789 -427 88 -19 130 -22 326 -22 195 0 238 3 323
22 692 154 1165 686 1236 1391 15 145 15 16907 0 17052 -14 138 -33 233 -74
355 -172 520 -612 914 -1151 1033 -74 17 -343 46 -364 40 -3 -1 -48 -5 -100
-9z"/>
<path d="M27310 20089 c-1649 -60 -3250 -711 -4485 -1823 -1823 -1644 -2671
-4082 -2260 -6503 294 -1730 1219 -3289 2600 -4384 888 -704 1916 -1181 3025
-1403 495 -99 985 -143 1480 -133 317 7 440 15 740 53 2067 258 3933 1408
5099 3144 990 1473 1391 3239 1136 5000 -148 1019 -530 2018 -1098 2870 -1202
1801 -3134 2954 -5287 3155 -149 14 -641 37 -715 33 -16 -1 -122 -5 -235 -9z
m785 -3108 c916 -124 1733 -533 2362 -1184 632 -654 1008 -1467 1104 -2387 17
-159 17 -628 1 -780 -105 -959 -490 -1779 -1142 -2430 -324 -324 -652 -559
-1055 -755 -589 -287 -1193 -417 -1864 -402 -258 6 -406 20 -631 63 -1623 307
-2916 1613 -3204 3235 -80 447 -80 926 0 1379 187 1064 806 2014 1704 2615
187 124 333 209 499 288 438 208 889 330 1386 376 171 16 667 5 840 -18z"/>
<path d="M42385 20089 c-205 -15 -487 -48 -675 -79 -1879 -310 -3542 -1347
-4653 -2903 -677 -948 -1113 -2060 -1262 -3222 -65 -507 -72 -1121 -19 -1650
121 -1204 572 -2399 1281 -3392 1157 -1621 2932 -2687 4888 -2937 388 -50 979
-70 1342 -47 1219 79 2350 449 3396 1112 60 38 110 69 113 69 2 0 5 -1268 7
-2817 l3 -2818 22 -114 c156 -809 852 -1341 1672 -1280 718 54 1282 562 1422
1280 l22 114 6 5680 c4 4721 7 5685 18 5710 26 57 31 148 22 410 -38 1076
-285 2044 -765 2990 -700 1380 -1820 2487 -3210 3175 -790 390 -1579 613
-2505 706 -183 19 -937 27 -1125 13z m891 -3144 c795 -76 1521 -378 2162 -901
128 -105 416 -392 528 -527 493 -598 803 -1307 905 -2071 11 -84 22 -244 25
-361 6 -195 5 -216 -16 -295 -15 -57 -25 -136 -30 -240 -12 -212 -53 -436
-131 -703 -291 -1006 -986 -1873 -1904 -2375 -490 -269 -1027 -428 -1600 -473
-206 -16 -604 -6 -800 20 -567 76 -1087 258 -1559 543 -285 173 -508 348 -757
597 -319 320 -557 648 -752 1037 -212 423 -339 863 -399 1379 -20 170 -17 666
5 845 111 903 487 1696 1102 2329 646 664 1454 1067 2364 1181 202 25 215 26
477 28 135 1 283 -4 380 -13z"/>
</g>
</svg>
